<svg id="Layer_1" data-name="Layer 1" xmlns="http://www.w3.org/2000/svg" viewBox="0 0 208.14 291.73"><defs><style>.cls-1{fill:#35c652;}</style></defs><path class="cls-1" d="M103.07,202.37c-7.46,0-13.51,19.95-13.51,44.52s6,44.52,13.51,44.52,13.52-20,13.52-44.52S110.54,202.37,103.07,202.37Z"/><path class="cls-1" d="M103.07,145.13c-24.56,0-44.51-35.64-44.51-79.5,0-26.18,7.1-49.44,18.06-63.92C32.29,20.28-.29,85.38-.27,162.69c1.05,0,2.1-.07,3.17-.07A79.17,79.17,0,0,1,80.54,226c3.24-24.85,12.12-42.71,22.53-42.71s19.3,17.86,22.54,42.71a79.18,79.18,0,0,1,77.64-63.39c1.07,0,2.12,0,3.17.07,0-77.31-32.58-142.41-76.89-161,11,14.48,18.06,37.74,18.06,63.92C147.59,109.49,127.64,145.13,103.07,145.13Z"/></svg>