<svg id="Layer_1" data-name="Layer 1" xmlns="http://www.w3.org/2000/svg" viewBox="0 0 299.19 288.73"><defs><style>.cls-1{fill:#c53633;}</style></defs><path class="cls-1" d="M149.6,128.64q-17.31,30-34.61,60h69.24q-17.31-30-34.61-60Z"/><path class="cls-1" d="M209.55,194.93,299,246.69l-44.77-77.54c-3.46,2-6.92,4-10.39,6q-7.19-12.46-14.38-24.93,12-20.78,24-41.55l-48,0q-7.2-12.48-14.39-24.93c3.46-2,6.92-4,10.39-6L156.68.22q.06,51.68.11,103.33l52.76,91.39Z"/><path class="cls-1" d="M96.84,207.39,7.3,259H96.84V247h28.79q12,20.8,24,41.57,12-20.8,24-41.57h28.79v12H291.9l-89.53-51.57Z"/><path class="cls-1" d="M142.4,103.54q.06-51.67.11-103.33L97.75,77.75l10.38,6L93.75,108.66h-48l24,41.55q-7.2,12.47-14.39,24.93l-10.39-6Q22.6,207.9.21,246.67l89.43-51.76,52.76-91.39Z"/></svg>