<svg id="Layer_1" data-name="Layer 1" xmlns="http://www.w3.org/2000/svg" viewBox="0 0 252.78 307.46"><defs><style>.cls-1{fill:#f4dd3d;}</style></defs><path class="cls-1" d="M90.1,189.41c8.2-13.38,21.32-22,36.09-22s27.89,8.68,36.08,22c-6.46-26.82-20.2-45.32-36.08-45.32S96.55,162.6,90.1,189.41Z"/><path class="cls-1" d="M163.13,227.58c0-26.13-16.56-47.37-36.93-47.37s-36.92,21.24-36.92,47.37S105.83,275,126.2,275,163.13,253.72,163.13,227.58Z"/><path class="cls-1" d="M155.9,272.77c11.15-10.88,18.46-27.92,18.46-46.8A72,72,0,0,0,172,207.46c.33-5.24,1.81-16.15-2.55-32.06s-14.53-27.35-20.75-33.73c9.41-2.36,17.67-9.92,23.27-19.59s12.15-25,14.34-51.06-5.2-59.38-8.71-71.45C186.5,10,198.63,31,206.48,51s16.24,50.6,19.52,72.25,4,35.32,1.36,49.77c-10.25-6-16.52-1.59-19.34.4s-8.85,8.64-11.72,16.55a62,62,0,0,0-2.57,28c1.41,8.57,4.71,10.82,7.66,10.78s8.21-1.7,18.92-14.38,18.56-27.92,21.43-35.56,7.46-19.66,10.51-33.88a148.52,148.52,0,0,1-8.18,66.64c-6.24,16.68-15.81,34.29-35.64,56.2s-40.64,35.3-62.14,40.14A51.1,51.1,0,0,0,153.84,291a79.63,79.63,0,0,0,2.08-18.23Z"/><path class="cls-1" d="M96.49,272.77C85.56,261.87,78,244.62,78,226a71.56,71.56,0,0,1,3-20.59,71.24,71.24,0,0,1,1-22.77c1.42-7.68,5.34-17.36,8-22.88-17.63-5.61-26.43-16.53-31.4-28.5S52.36,99.78,53,83.05a126.87,126.87,0,0,1,7.34-39.34C49.85,56.08,38.66,75.28,33.67,87.07S23.59,117.4,22.06,131.23,20.31,157.79,25,173c10.4-6.36,16.68-1.59,19.51.4s8.61,9.15,11.92,18.06a50.93,50.93,0,0,1,2.13,26.49c-1.45,8.37-5.05,10.39-7.63,10.37s-8-1.29-18.67-14S13.35,186.1,10.42,178.76A159.94,159.94,0,0,1,.94,146.49c-3.25,24.68-.23,43.92,7.42,65s23.13,42,35.6,56.2,33.17,32.53,62.14,40.14a74,74,0,0,1-6.9-17.49,101.32,101.32,0,0,1-2.73-17.58Z"/></svg>