<svg id="Layer_1" data-name="Layer 1" xmlns="http://www.w3.org/2000/svg" viewBox="0 0 167.36 161.51"><defs><style>.cls-1{fill:#fff;}</style></defs><path class="cls-1" d="M83.68,72,64.29,105.54h38.79L83.69,72Z"/><path class="cls-1" d="M117.27,109.08l50.09,29L142.28,94.64,136.46,98,128.4,84l13.45-23.28H115c-2.68-4.66-5.37-9.3-8-14l5.81-3.36Q100.2,21.72,87.65,0l.06,57.88q14.78,25.59,29.56,51.19Z"/><path class="cls-1" d="M54.13,116.06,4,145H54.13v-6.72H70.25Q77,149.87,83.68,161.51q6.72-11.65,13.44-23.28h16.12V145H163.4l-50.16-28.89Z"/><path class="cls-1" d="M79.65,57.88,79.71,0,54.63,43.44l5.82,3.35q-4,7-8.06,14H25.51L39,84,30.9,98l-5.82-3.35L0,138.06q25-14.49,50.09-29l29.56-51.2Z"/></svg>