<svg id="Layer_1" data-name="Layer 1" xmlns="http://www.w3.org/2000/svg" viewBox="0 0 141.4 171.99"><defs><style>.cls-1{fill:#fff;}</style></defs><path class="cls-1" d="M50.46,105.9C55,98.43,62.35,93.6,70.59,93.6s15.55,4.84,20.12,12.3c-3.6-15-11.26-25.29-20.12-25.29S54.05,90.94,50.46,105.9Z"/><path class="cls-1" d="M91.19,127.19c0-14.58-9.24-26.43-20.6-26.43S50,112.61,50,127.19s9.23,26.42,20.59,26.42S91.19,141.77,91.19,127.19Z"/><path class="cls-1" d="M87.16,152.4c6.22-6.08,10.3-15.58,10.3-26.11A40.3,40.3,0,0,0,96.13,116,47.59,47.59,0,0,0,94.7,98.08c-2.44-8.9-8.1-15.26-11.58-18.81,5.25-1.32,9.86-5.54,13-10.93s6.77-14,8-28.48S101.21,6.74,99.25,0c5,5.8,11.75,17.55,16.13,28.66A214,214,0,0,1,126.26,69c1.82,12.07,2.24,19.7.76,27.76-5.72-3.36-9.21-.88-10.79.22a22.2,22.2,0,0,0-6.53,9.23,34.52,34.52,0,0,0-1.44,15.64c.79,4.78,2.63,6,4.28,6s4.58-1,10.55-8A77.09,77.09,0,0,0,135,100a129.3,129.3,0,0,0,5.87-18.9,82.82,82.82,0,0,1-4.57,37.17c-3.48,9.31-8.82,19.13-19.88,31.35S93.79,169.28,81.8,172A28.53,28.53,0,0,0,86,162.58a44,44,0,0,0,1.16-10.17Z"/><path class="cls-1" d="M54,152.4c-6.09-6.08-10.3-15.71-10.3-26.11a39.79,39.79,0,0,1,1.67-11.49A39.91,39.91,0,0,1,46,102.1a57.68,57.68,0,0,1,4.48-12.76c-9.83-3.13-14.74-9.22-17.51-15.9S29.41,55.9,29.78,46.57a71.12,71.12,0,0,1,4.09-21.95A109.74,109.74,0,0,0,19,48.81,100.63,100.63,0,0,0,12.5,73.44c-.85,7.71-1,14.82,1.66,23.28,5.8-3.55,9.3-.88,10.88.23s4.81,5.1,6.65,10.07a28.38,28.38,0,0,1,1.19,14.78c-.81,4.66-2.82,5.8-4.26,5.78s-4.44-.72-10.41-7.79A83,83,0,0,1,6,100,89.32,89.32,0,0,1,.72,82c-1.81,13.77-.12,24.5,4.14,36.28s12.9,23.42,19.86,31.35S43.22,167.72,59.38,172a41.57,41.57,0,0,1-3.85-9.76A56.28,56.28,0,0,1,54,152.4Z"/></svg>