<svg id="Layer_1" data-name="Layer 1" xmlns="http://www.w3.org/2000/svg" viewBox="0 0 116.43 163.19"><defs><style>.cls-1{fill:#fff;}</style></defs><path class="cls-1" d="M58.21,113c-4.2,0-7.61,11.24-7.61,25.08s3.41,25.08,7.61,25.08,7.62-11.24,7.62-25.08S62.42,113,58.21,113Z"/><path class="cls-1" d="M58.21,80.79C44.37,80.79,33.14,60.72,33.14,36c0-14.75,4-27.85,10.17-36C18.34,10.46,0,47.13,0,90.68c.59,0,1.19,0,1.79,0a44.6,44.6,0,0,1,43.73,35.71c1.83-14,6.83-24.06,12.69-24.06s10.87,10.06,12.7,24.06a44.59,44.59,0,0,1,43.73-35.71c.6,0,1.19,0,1.79,0,0-43.55-18.35-80.22-43.31-90.68,6.17,8.16,10.17,21.26,10.17,36C83.29,60.72,72.05,80.79,58.21,80.79Z"/></svg>