<svg id="Layer_1" data-name="Layer 1" xmlns="http://www.w3.org/2000/svg" viewBox="0 0 703 374"><defs><style>.cls-1{fill:#fff;}</style></defs><polygon class="cls-1" points="561.3 187.18 653.75 347.29 594.8 347.29 473.49 136.23 659.6 136.23 689 187.16 561.32 187.16 561.3 187.18"/><polygon class="cls-1" points="410.52 26.71 596.34 26.71 628.74 82.81 442.76 82.81 410.52 26.71"/><path class="cls-1" d="M354.05,26.71h-1.49L167.47,347.29h56.78l44-76.23H435.89l44,76.23h58.43ZM305.57,207.25l46.52-80.56,46.51,80.56Z"/><polygon class="cls-1" points="74.26 82.81 106.66 26.71 295.93 26.71 263.53 82.81 74.26 82.81"/><polygon class="cls-1" points="110.82 347.29 49.23 347.29 141.68 187.18 14 187.18 43.4 136.25 232.67 136.25 110.82 347.29"/></svg>