<svg width="44" height="44" viewBox="0 0 44 44" fill="none" xmlns="http://www.w3.org/2000/svg">
<path d="M21.0522 11.6682C21.0522 11.7958 20.9247 11.7958 20.9247 11.7958H20.7972C20.6696 11.7958 20.6696 11.6682 20.5421 11.5407C20.5421 11.5407 20.4146 11.4132 20.4146 11.2857C20.4146 11.1581 20.4146 11.1581 20.5421 11.1581L20.7972 11.2857C20.9247 11.4132 21.0522 11.5407 21.0522 11.6682ZM18.7568 10.393C18.7568 9.7554 18.5018 9.37283 18.1192 9.37283C18.1192 9.37283 18.1192 9.50036 17.9917 9.50036V9.7554H18.3742C18.3742 10.0104 18.5018 10.138 18.5018 10.393H18.7568ZM23.2201 9.7554C23.4751 9.7554 23.6027 10.0104 23.7302 10.393H23.9852C23.8577 10.2655 23.8577 10.138 23.8577 10.0104C23.8577 9.88292 23.8577 9.7554 23.7302 9.62788C23.6027 9.50036 23.4751 9.37283 23.3476 9.37283C23.3476 9.37283 23.2201 9.50036 23.0926 9.50036C23.0926 9.62788 23.2201 9.62788 23.2201 9.7554ZM19.3944 11.7958C19.2669 11.7958 19.2669 11.7958 19.2669 11.6682C19.2669 11.5407 19.2669 11.4132 19.3944 11.2857C19.6495 11.2857 19.777 11.1581 19.777 11.1581C19.9045 11.1581 19.9045 11.2857 19.9045 11.2857C19.9045 11.4132 19.777 11.5407 19.5219 11.7958H19.3944ZM17.9917 11.6682C17.4816 11.4132 17.3541 11.0306 17.3541 10.393C17.3541 10.0104 17.3541 9.7554 17.6091 9.50036C17.7366 9.24531 17.9917 9.11779 18.2467 9.11779C18.5018 9.11779 18.6293 9.24531 18.8843 9.50036C19.0118 9.88292 19.1394 10.2655 19.1394 10.6481V10.7756V10.9031H19.2669V10.7756C19.3944 10.7756 19.3944 10.5205 19.3944 10.0104C19.3944 9.62788 19.3944 9.24531 19.1394 8.86274C18.8843 8.48018 18.6293 8.22513 18.1192 8.22513C17.7366 8.22513 17.3541 8.48018 17.2265 8.86274C16.9715 9.37283 16.9205 9.7554 16.9205 10.393C16.9205 10.9031 17.099 11.4132 17.6091 11.9233C17.7366 11.7958 17.8641 11.7958 17.9917 11.6682ZM33.932 29.6489C34.0595 29.6489 34.0595 29.5979 34.0595 29.4831C34.0595 29.2026 33.932 28.871 33.5494 28.5012C33.1668 28.1186 32.5292 27.8764 31.7641 27.7743C31.6366 27.7616 31.5091 27.7616 31.5091 27.7616C31.3815 27.7361 31.3815 27.7361 31.254 27.7361C31.1265 27.7233 30.8714 27.6978 30.7439 27.6723C31.1265 26.4864 31.254 25.4407 31.254 24.5225C31.254 23.2473 30.999 22.3546 30.4889 21.5895C29.9788 20.8244 29.4687 20.4418 28.8311 20.3143C28.7036 20.4418 28.7036 20.4418 28.7036 20.5693C29.3412 20.8244 29.9788 21.3344 30.3613 22.0996C30.7439 22.9922 30.8714 23.7574 30.8714 24.65C30.8714 25.3642 30.7439 26.4226 30.2338 27.7743C29.7237 27.9784 29.2136 28.4502 28.8311 29.1898C28.8311 29.3046 28.8311 29.3684 28.9586 29.3684C28.9586 29.3684 29.0861 29.2536 29.2136 29.0368C29.4687 28.82 29.5962 28.6032 29.8513 28.3864C30.2338 28.1697 30.4889 28.0549 30.8714 28.0549C31.5091 28.0549 32.1467 28.1441 32.5292 28.3227C33.0393 28.4885 33.2944 28.667 33.4219 28.871C33.5494 29.0623 33.6769 29.2408 33.8045 29.4066C33.8045 29.5724 33.932 29.6489 33.932 29.6489V29.6489ZM22.1999 11.1581C22.0724 11.0306 22.0724 10.7756 22.0724 10.5205C22.0724 10.0104 22.0724 9.7554 22.3274 9.37283C22.5825 9.11779 22.8375 8.99027 23.0926 8.99027C23.4751 8.99027 23.7302 9.24531 23.9852 9.50036C24.1127 9.88292 24.2403 10.138 24.2403 10.5205C24.2403 11.1581 23.9852 11.5407 23.4751 11.6682C23.4751 11.6682 23.6027 11.7958 23.7302 11.7958C23.9852 11.7958 24.1127 11.9233 24.3678 12.0508C24.4953 11.2857 24.6228 10.7756 24.6228 10.138C24.6228 9.37283 24.4953 8.86274 24.2403 8.48018C23.8577 8.09761 23.4751 7.97009 22.965 7.97009C22.5825 7.97009 22.1999 8.09761 21.8173 8.35265C21.5623 8.73522 21.4348 8.99027 21.4348 9.37283C21.4348 10.0104 21.5623 10.5205 21.8173 11.0306C21.9449 11.0306 22.0724 11.1581 22.1999 11.1581ZM23.7302 13.1985C22.0724 14.3462 20.7972 14.8563 19.777 14.8563C18.8843 14.8563 17.9917 14.4737 17.2265 13.8361C17.3541 14.0912 17.4816 14.3462 17.6091 14.4737L18.3742 15.2389C18.8843 15.749 19.5219 16.004 20.1595 16.004C21.0522 16.004 22.0724 15.4939 23.3476 14.6013L24.4953 13.8361C24.7504 13.5811 25.0054 13.326 25.0054 12.9435C25.0054 12.8159 25.0054 12.6884 24.8779 12.6884C24.7504 12.4334 24.1127 12.0508 22.8375 11.6682C21.6898 11.1581 20.7972 10.9031 20.2871 10.9031C19.9045 10.9031 19.2669 11.1581 18.3742 11.6682C17.6091 12.1783 17.099 12.6884 17.099 13.1985C17.099 13.1985 17.2265 13.326 17.3541 13.5811C18.1192 14.2187 18.8843 14.6013 19.6495 14.6013C20.6696 14.6013 21.9449 14.0912 23.6027 12.8159V13.071C23.7302 13.071 23.7302 13.1985 23.7302 13.1985ZM26.6632 38.9581C27.1733 39.917 28.0659 40.3991 29.0861 40.3991C29.3412 40.3991 29.5962 40.3608 29.8513 40.2843C30.1063 40.2333 30.3613 40.144 30.4889 40.042C30.6164 39.9527 30.7439 39.8635 30.8714 39.7614C31.1265 39.6722 31.1265 39.6084 31.254 39.5447L33.4219 37.6701C33.932 37.2633 34.4421 36.9075 35.0797 36.5989C35.5898 36.2928 36.0999 36.0888 36.3549 35.974C36.7375 35.872 36.9925 35.719 37.2476 35.5149C37.3751 35.3237 37.5026 35.0814 37.5026 34.7753C37.5026 34.4055 37.2476 34.125 36.9925 33.9209C36.7375 33.7169 36.4824 33.5766 36.2274 33.4873C35.9723 33.3981 35.7173 33.194 35.3347 32.8497C35.0797 32.5182 34.8246 32.0591 34.6971 31.4597L34.5696 30.7201C34.4421 30.3758 34.4421 30.1207 34.3145 29.9805C34.3145 29.9422 34.3145 29.9295 34.187 29.9295C34.0595 29.9295 33.8045 30.0442 33.6769 30.261C33.4219 30.4778 33.1668 30.7201 32.9118 30.9751C32.7843 31.2302 32.4017 31.4597 32.1467 31.6765C31.7641 31.8933 31.3815 32.0081 31.1265 32.0081C30.1063 32.0081 29.5962 31.7275 29.2136 31.1792C28.9586 30.7711 28.8311 30.2993 28.7036 29.7637C28.4485 29.5469 28.321 29.4321 28.0659 29.4321C27.4283 29.4321 27.1733 30.0952 27.1733 31.4342V31.8551V33.3343V34.4693V35.0176V35.4002C27.1733 35.515 27.0458 35.77 27.0458 36.1653C26.9182 36.5606 26.9182 37.0095 26.9182 37.5171L26.6632 38.9326V38.9542V38.9581ZM8.17243 38.2796C9.35839 38.4531 10.7229 38.8242 12.2659 39.3904C13.8089 39.9515 14.7526 40.2448 15.0969 40.2448C15.9896 40.2448 16.7292 39.8494 17.3413 39.0856C17.4688 38.8382 17.4688 38.5474 17.4688 38.2133C17.4688 37.0082 16.7419 35.4843 15.2882 33.6353L14.421 32.4748C14.2425 32.2325 14.0257 31.8627 13.7452 31.3654C13.4774 30.868 13.2351 30.4855 13.0438 30.2177C12.878 29.9244 12.6102 29.6311 12.2659 29.3378C11.9343 29.0445 11.5518 28.8532 11.131 28.7512C10.5954 28.8532 10.2255 29.0317 10.047 29.274C9.86848 29.5163 9.76646 29.7841 9.74096 30.0646C9.7027 30.3324 9.62619 30.511 9.49867 30.6002C9.37114 30.6767 9.15436 30.7405 8.86105 30.8043C8.79729 30.8043 8.68252 30.8043 8.51674 30.817H8.17243C7.49656 30.817 7.03748 30.8935 6.79519 31.0211C6.47638 31.3909 6.3106 31.8117 6.3106 32.258C6.3106 32.4621 6.36161 32.8064 6.46363 33.291C6.56565 33.7628 6.61666 34.1454 6.61666 34.4132C6.61666 34.936 6.46363 35.4588 6.14482 35.9817C5.82602 36.53 5.66024 36.9381 5.66024 37.2289C5.78776 37.7236 6.62941 38.0718 8.17243 38.2758V38.2796ZM12.4189 26.684C12.4189 25.8041 12.6485 24.8349 13.1203 23.6872C13.5794 22.5395 14.0385 21.7744 14.4848 21.2643C14.4593 21.1368 14.3955 21.1368 14.2935 21.1368L14.166 21.0093C13.7962 21.3918 13.3498 22.2845 12.8143 23.5597C12.2787 24.7074 11.9981 25.7659 11.9981 26.5437C11.9981 27.1176 12.1384 27.6149 12.3934 28.0485C12.674 28.4693 13.3498 29.0814 14.421 29.8593L15.7728 30.7392C17.2138 31.989 17.9789 32.8561 17.9789 33.3662C17.9789 33.634 17.8514 33.9018 17.4688 34.1951C17.2138 34.5011 16.8695 34.6542 16.5762 34.6542C16.5507 34.6542 16.5379 34.6797 16.5379 34.7434C16.5379 34.7562 16.6654 35.0112 16.9332 35.5086C17.4688 36.2355 18.6165 36.5925 20.1468 36.5925C22.9523 36.5925 25.1202 35.4448 26.778 33.1494C26.778 32.5118 26.778 32.1165 26.6504 31.9507V31.4789C26.6504 30.65 26.778 30.0251 27.033 29.617C27.2881 29.209 27.5431 29.0177 27.9257 29.0177C28.1807 29.0177 28.4358 29.1069 28.6908 29.2982C28.8183 28.3163 28.8183 27.4619 28.8183 26.6968C28.8183 25.5363 28.8183 24.5799 28.5633 23.6872C28.4358 22.9221 28.1807 22.2845 27.9257 21.7744C27.6706 21.3918 27.4156 21.0093 27.1605 20.6267C26.9055 20.2441 26.778 19.8616 26.5229 19.479C26.3954 18.9689 26.2679 18.5863 26.2679 17.9487C25.8853 17.3111 25.6303 16.6735 25.2477 16.0359C24.9926 15.3983 24.7376 14.7607 24.4826 14.2506L23.3349 15.1432C22.0596 16.0359 21.0395 16.4185 20.1468 16.4185C19.3817 16.4185 18.744 16.2909 18.3615 15.7808L17.5963 15.1432C17.5963 15.5258 17.4688 16.0359 17.2138 16.546L16.4104 18.0762C16.0533 18.9689 15.862 19.479 15.8238 19.8616C15.7728 20.1166 15.7345 20.3717 15.709 20.3717L14.7526 22.2845C13.7197 24.1973 13.1968 25.9699 13.1968 27.4364C13.1968 27.7297 13.2223 28.0358 13.2733 28.3418C12.6995 27.9465 12.4189 27.3981 12.4189 26.684V26.684ZM21.5495 38.7476C19.8918 38.7476 18.6165 38.9721 17.7239 39.4171V39.3789C17.0863 40.144 16.3721 40.5393 15.3775 40.5393C14.7526 40.5393 13.7707 40.297 12.4444 39.8125C11.1055 39.3534 9.91949 39.0014 8.88656 38.7693C8.78454 38.74 8.555 38.6966 8.18518 38.638C7.82812 38.5806 7.49656 38.5219 7.20326 38.4633C6.93546 38.4059 6.62941 38.3192 6.29785 38.2019C5.97904 38.1011 5.724 37.9698 5.53272 37.8104C5.35673 37.6497 5.27002 37.4686 5.27002 37.2658C5.27002 37.0618 5.31338 36.8437 5.40009 36.6116C5.48171 36.4714 5.57097 36.3311 5.66024 36.2036C5.7495 36.0633 5.82602 35.9358 5.87703 35.8083C5.95354 35.6935 6.00455 35.5787 6.05556 35.4512C6.10657 35.3364 6.15758 35.2216 6.18308 35.0814C6.20859 34.9539 6.23409 34.8263 6.23409 34.6988C6.23409 34.5713 6.18308 34.1887 6.08106 33.5128C5.97904 32.8497 5.92804 32.4289 5.92804 32.2504C5.92804 31.6893 6.05556 31.2429 6.33611 30.9241C6.61666 30.6053 6.88445 30.4396 7.165 30.4396H8.63151C8.74628 30.4396 8.92481 30.3758 9.19261 30.2228C9.28188 30.0187 9.35839 29.8529 9.4094 29.6999C9.47316 29.5469 9.49867 29.4321 9.52417 29.3811C9.54968 29.3046 9.57518 29.2281 9.60068 29.1643C9.65169 29.0751 9.71545 28.973 9.80472 28.871C9.7027 28.7435 9.65169 28.5777 9.65169 28.3737C9.65169 28.2334 9.65169 28.1059 9.6772 28.0294C9.6772 27.5703 9.89399 26.9199 10.3531 26.0655L10.7994 25.2621C11.1692 24.5735 11.4498 24.0634 11.6538 23.5533C11.8706 23.0432 12.1001 22.2781 12.3552 21.2579C12.5592 20.3653 13.0438 19.4726 13.8089 18.58L14.7653 17.4323C15.4285 16.6671 15.862 16.0295 16.1043 15.5194C16.3466 15.0093 16.4741 14.3717 16.4741 13.8616C16.4741 13.6066 16.4104 12.8414 16.2701 11.5662C16.1426 10.291 16.0788 9.01577 16.0788 7.86807C16.0788 6.97541 16.1553 6.3378 16.3211 5.70019C16.4869 5.06257 16.7802 4.42496 17.2138 3.91487C17.5963 3.40478 18.1064 2.89469 18.8716 2.63965C19.6367 2.3846 20.5294 2.25708 21.5495 2.25708C21.9321 2.25708 22.3147 2.25708 22.6972 2.3846C23.0798 2.3846 23.5899 2.51213 24.2275 2.76717C24.7376 3.02222 25.2477 3.27726 25.6303 3.65983C26.1404 4.0424 26.5229 4.68001 26.9055 5.31762C27.1605 6.08275 27.4156 6.84789 27.5431 7.86807C27.6706 8.50568 27.6706 9.14329 27.7981 10.036C27.7981 10.8011 27.9257 11.3112 27.9257 11.6937C28.0532 12.0763 28.0532 12.5864 28.1807 13.224C28.3082 13.7341 28.4358 14.2442 28.6908 14.6268C28.9458 15.1369 29.2009 15.6469 29.5835 16.157C29.966 16.7946 30.4761 17.4323 30.9862 18.1974C32.1339 19.4726 33.0266 20.8754 33.5367 22.2781C34.1743 23.5533 34.5568 25.2111 34.5568 26.9837C34.5568 27.8636 34.4293 28.718 34.1743 29.5469C34.4293 29.5469 34.5568 29.6489 34.6844 29.8274C34.8119 30.006 34.9394 30.3885 35.0669 30.9879L35.1945 31.9316C35.322 32.2121 35.4495 32.4799 35.8321 32.7095C36.0871 32.939 36.3422 33.1303 36.7247 33.2833C36.9798 33.4108 37.3623 33.5894 37.6174 33.8189C37.8724 34.0739 37.9999 34.3417 37.9999 34.6223C37.9999 35.0559 37.8724 35.3747 37.6174 35.6042C37.3623 35.8593 37.1073 36.0378 36.7247 36.1526C36.4697 36.2801 35.9596 36.5351 35.1945 36.8947C34.5568 37.2722 33.9192 37.73 33.2816 38.272L32.0064 39.3572C31.4963 39.8545 30.9862 40.2116 30.6036 40.4284C30.2211 40.6579 29.711 40.7727 29.2009 40.7727L28.3082 40.6707C27.2881 40.4029 26.6504 39.8928 26.2679 39.1149C24.2275 38.8675 22.5697 38.7451 21.5495 38.7451" fill="white"/>
</svg>
