<svg id="Layer_1" data-name="Layer 1" xmlns="http://www.w3.org/2000/svg" viewBox="0 0 1080 1920"><defs><style>.cls-1{fill:aqua;}.cls-1,.cls-2,.cls-3{stroke:#000;}.cls-1,.cls-2,.cls-3,.cls-4{stroke-miterlimit:10;}.cls-2{fill:lime;}.cls-3,.cls-4{fill:#ff0;}.cls-4{stroke:#fff;stroke-width:28px;}.cls-5{fill:#fff;}</style></defs><rect class="cls-1" x="132" y="-266" width="1256" height="2505"/><rect class="cls-2" x="787" y="-319" width="1256" height="2505"/><rect class="cls-3" x="-889" y="-319" width="1256" height="2505"/><rect class="cls-4" x="77" y="69" width="1000" height="1729"/><path class="cls-5" d="M402.64,1006.16,330,933.5l72.65-72.66L475.3,933.5Z"/><path class="cls-5" d="M489.83,1093.32l-72.66-72.66L489.83,948l72.66,72.66Q526.17,1057,489.83,1093.32Z"/><path class="cls-5" d="M577,1180.5l-72.65-72.66L577,1035.19l72.66,72.65Z"/><path class="cls-5" d="M664.17,1093.32l-72.66-72.66L664.17,948l72.66,72.66Z"/><path class="cls-5" d="M751.36,1006.16,678.7,933.5q36.33-36.35,72.66-72.66L824,933.5Z"/><path class="cls-5" d="M577,1006.16,417.67,846.81,577,686.5q79.92,79.92,159.82,159.82L577,1006.13Z"/></svg>